<svg width="18" height="17" viewBox="0 0 18 17" fill="none" xmlns="http://www.w3.org/2000/svg">
<path fill-rule="evenodd" clip-rule="evenodd" d="M8.9003 0.71875C3.9848 0.71875 0 4.34524 0 8.81875C0 13.2923 3.9848 16.9188 8.9003 16.9188C13.8158 16.9188 17.8006 13.2923 17.8006 8.81875C17.8006 6.6705 16.8629 4.61023 15.1938 3.09119C13.5246 1.57214 11.2608 0.71875 8.9003 0.71875ZM16.0204 8.81884C15.0011 8.54032 13.9428 8.39843 12.8786 8.39764C12.2454 8.40533 11.6142 8.46224 10.9917 8.56774C10.7692 8.07363 10.5378 7.59572 10.2886 7.11782C11.7523 6.45224 13.087 5.57402 14.2403 4.51768C15.3955 5.70292 16.0294 7.23452 16.0204 8.81884ZM9.67482 6.04859C10.9954 5.44571 12.1981 4.64941 13.2349 3.69154C11.9934 2.81832 10.4696 2.34279 8.9005 2.33887C8.32437 2.34098 7.75062 2.40625 7.19165 2.53326C8.11997 3.64359 8.95029 4.81904 9.67482 6.04859ZM5.8921 2.95438C6.85672 4.08675 7.71704 5.28961 8.46429 6.55072C6.90099 7.10629 5.23847 7.39461 3.56022 7.40121C3.03377 7.39598 2.50797 7.36624 1.98486 7.31211C2.49059 5.39404 3.92877 3.79004 5.8921 2.95438ZM1.78003 8.51102V8.81883C1.78415 10.4171 2.43713 11.9576 3.61349 13.1443C4.99839 11.0946 7.15624 9.57422 9.6835 8.86743C9.49661 8.44625 9.28302 8.04127 9.06943 7.6363L9.06942 7.63628L9.06942 7.63626L9.06938 7.6362C7.31815 8.2788 5.4483 8.61145 3.56009 8.61632C2.96493 8.61444 2.37045 8.57928 1.78003 8.51102ZM4.61035 13.9784C5.83119 12.0558 7.81573 10.6324 10.1552 10.0015C10.781 11.5752 11.2255 13.2039 11.4814 14.8613C9.18074 15.685 6.57426 15.3531 4.61035 13.9865V13.9784ZM11.4722 9.72598C12.0402 11.2037 12.4631 12.7244 12.736 14.2701C14.3702 13.3203 15.5081 11.805 15.8867 10.0743C14.9166 9.78017 13.9009 9.62975 12.8784 9.62878C12.4078 9.63266 11.938 9.66513 11.4722 9.72598Z" fill="#7B7B7B"/>
</svg>
