<svg width="19" height="17" viewBox="0 0 19 17" fill="none" xmlns="http://www.w3.org/2000/svg">
<path d="M18.796 3.06659C18.3103 3.72255 17.7232 4.29474 17.0574 4.76108C17.0574 4.93243 17.0574 5.10379 17.0574 5.28466C17.0628 8.39641 15.8352 11.3802 13.6498 13.5671C11.4644 15.7539 8.50416 16.961 5.43258 16.9176C3.65683 16.9236 1.90382 16.5131 0.310872 15.7182C0.22498 15.6802 0.169581 15.5941 0.169908 15.4992V15.3945C0.169908 15.2578 0.279301 15.147 0.414246 15.147C2.15976 15.0887 3.84301 14.476 5.22583 13.3954C3.6459 13.3632 2.22436 12.4155 1.57015 10.9583C1.53711 10.8788 1.5474 10.7875 1.5973 10.7175C1.64721 10.6475 1.72952 10.6089 1.81449 10.6156C2.29467 10.6645 2.77964 10.6193 3.24293 10.4824C1.49881 10.1158 0.188305 8.64975 0.000750258 6.85539C-0.00591569 6.76932 0.0321829 6.68594 0.101282 6.63539C0.170382 6.58483 0.260494 6.57441 0.339065 6.60788C0.80711 6.81699 1.31236 6.92713 1.82389 6.93155C0.29563 5.91594 -0.364478 3.98421 0.216896 2.22886C0.276907 2.0583 0.421084 1.93229 0.596445 1.89715C0.771806 1.86202 0.952482 1.92293 1.07208 2.05751C3.13437 4.27984 5.96799 5.60412 8.97548 5.75112C8.89845 5.43988 8.86056 5.12003 8.86271 4.79916C8.89084 3.11669 9.919 1.61791 11.4658 1.0045C13.0127 0.391085 14.7721 0.784434 15.9203 2.00039C16.703 1.84942 17.4597 1.58322 18.1664 1.21027C18.2181 1.17755 18.2838 1.17755 18.3355 1.21027C18.3678 1.2627 18.3678 1.32919 18.3355 1.38162C17.9933 2.17518 17.4151 2.84076 16.6815 3.28554C17.3239 3.21012 17.9549 3.05671 18.5611 2.8286C18.6121 2.79343 18.6792 2.79343 18.7302 2.8286C18.773 2.84841 18.8049 2.88628 18.8176 2.93214C18.8303 2.97799 18.8224 3.02718 18.796 3.06659Z" fill="#7B7B7B"/>
</svg>
