<svg width="18" height="17" viewBox="0 0 18 17" fill="none" xmlns="http://www.w3.org/2000/svg">
<path fill-rule="evenodd" clip-rule="evenodd" d="M0 2.63245C0 1.57986 0.89543 0.726562 2 0.726562C2.53043 0.726562 3.03914 0.92736 3.41421 1.28478C3.78929 1.64221 4 2.12697 4 2.63245C4 3.68504 3.10457 4.53833 2 4.53833C0.89543 4.53833 0 3.68504 0 2.63245ZM17.5 10.6467C17.5345 8.58346 16.0574 6.77546 13.95 6.30126C12.5377 6.01147 11.0657 6.39147 10 7.32091V6.92067C10 6.65752 9.77614 6.4442 9.5 6.4442H7C6.72386 6.4442 6.5 6.65752 6.5 6.92067V16.4501C6.5 16.7132 6.72386 16.9266 7 16.9266H9.5C9.77614 16.9266 10 16.7132 10 16.4501V11.0755C9.97531 10.1185 10.6753 9.2827 11.66 9.09338C12.2464 8.99692 12.8473 9.15427 13.2997 9.52268C13.752 9.89109 14.0087 10.4323 14 10.9993V16.4501C14 16.7132 14.2239 16.9266 14.5 16.9266H17C17.2761 16.9266 17.5 16.7132 17.5 16.4501V10.6467ZM4 6.92066V16.4501C4 16.7132 3.77614 16.9266 3.5 16.9266H1C0.723858 16.9266 0.5 16.7132 0.5 16.4501V6.92066C0.5 6.65751 0.723858 6.44418 1 6.44418H3.5C3.77614 6.44418 4 6.65751 4 6.92066Z" fill="#7B7B7B"/>
</svg>
