<svg width="9" height="17" viewBox="0 0 9 17" fill="none" xmlns="http://www.w3.org/2000/svg">
<path d="M8.44444 3.42266H5.77778C5.28686 3.42266 4.88889 3.8256 4.88889 4.32266V7.02266H8.44444C8.54554 7.02039 8.64142 7.06801 8.70153 7.15035C8.76164 7.23268 8.77847 7.33946 8.74666 7.43666L8.08889 9.41666C8.02827 9.59838 7.86055 9.72123 7.67111 9.72266H4.88889V16.4727C4.88889 16.7212 4.6899 16.9227 4.44444 16.9227H2.22222C1.97676 16.9227 1.77778 16.7212 1.77778 16.4727V9.72266H0.444444C0.198984 9.72266 0 9.52118 0 9.27266V7.47266C0 7.22413 0.198984 7.02266 0.444444 7.02266H1.77778V4.32266C1.77778 2.33443 3.36965 0.722656 5.33333 0.722656H8.44444C8.6899 0.722656 8.88889 0.924128 8.88889 1.17266V2.97266C8.88889 3.22118 8.6899 3.42266 8.44444 3.42266Z" fill="#7B7B7B"/>
</svg>
