<svg width="20" height="21" viewBox="0 0 20 21" fill="none" xmlns="http://www.w3.org/2000/svg">
<path d="M15.5541 20.3727C13.7167 20.3712 11.9081 19.9188 10.2879 19.0557L9.78795 18.779C6.33356 16.9289 3.50154 14.1077 1.64429 10.6665L1.36654 10.1685C0.477536 8.54525 0.00791893 6.72722 6.98594e-07 4.87816V4.13664C-0.000468563 3.54668 0.23549 2.98096 0.655493 2.56504L2.53309 0.694625C2.71543 0.511565 2.97283 0.423331 3.22964 0.455852C3.48646 0.488373 3.71351 0.637954 3.84407 0.860638L6.34383 5.13271C6.59662 5.56755 6.52363 6.11746 6.16607 6.47189L4.06628 8.56366C3.8919 8.73546 3.85126 9.00086 3.96628 9.21664L4.35514 9.9471C5.75171 12.5241 7.8762 14.6366 10.4657 16.0232L11.1989 16.4216C11.4155 16.5362 11.6819 16.4957 11.8544 16.322L13.9542 14.2302C14.31 13.8741 14.862 13.8013 15.2985 14.0532L19.587 16.5434C19.8105 16.6734 19.9607 16.8996 19.9933 17.1554C20.026 17.4113 19.9374 17.6677 19.7537 17.8493L17.8761 19.7198C17.4585 20.1382 16.8906 20.3732 16.2984 20.3727H15.5541Z" fill="#7B7B7B"/>
</svg>
